<?xml version="1.0" encoding="utf-8"?>
<!-- Generator: Adobe Illustrator 16.0.0, SVG Export Plug-In . SVG Version: 6.00 Build 0)  -->
<!DOCTYPE svg PUBLIC "-//W3C//DTD SVG 1.1//EN" "http://www.w3.org/Graphics/SVG/1.1/DTD/svg11.dtd">
<svg version="1.1" id="Layer_1" xmlns="http://www.w3.org/2000/svg" xmlns:xlink="http://www.w3.org/1999/xlink" x="0px" y="0px"
	 width="226.77px" height="99.21px" viewBox="0 0 226.77 99.21" enable-background="new 0 0 226.77 99.21" xml:space="preserve">
<g opacity="0.95">
	<path fill="#AF212F" d="M76.192,0v64.266c0,12.715-12.777,23.013-28.531,23.013c-15.754,0-28.531-10.298-28.531-23.013V0H76.192z"
		/>
</g>
<g>
	<path fill="#AF212F" d="M91.474,40.805h7.424v2.933h-1.401v-1.75h-3.698v3.315h3.11v1.176h-3.11v3.514h3.698v-1.75h1.401v2.925
		h-7.424v-1.175h0.984v-8.005h-0.984V40.805z"/>
	<path fill="#AF212F" d="M99.944,50.341c0-0.119,0.024-0.231,0.072-0.338s0.113-0.201,0.195-0.28s0.177-0.144,0.284-0.191
		s0.222-0.072,0.345-0.072c0.119,0,0.231,0.024,0.338,0.072s0.201,0.112,0.28,0.191s0.144,0.173,0.191,0.28s0.072,0.22,0.072,0.338
		c0,0.123-0.024,0.239-0.072,0.349s-0.112,0.206-0.191,0.291c-0.08,0.084-0.173,0.15-0.28,0.198s-0.22,0.071-0.338,0.071
		c-0.123,0-0.238-0.023-0.345-0.071s-0.202-0.114-0.284-0.198c-0.082-0.084-0.147-0.181-0.195-0.291S99.944,50.464,99.944,50.341z"
		/>
	<path fill="#AF212F" d="M108.475,42.719c-0.146-0.201-0.307-0.354-0.482-0.461s-0.368-0.189-0.578-0.246s-0.419-0.085-0.629-0.085
		c-0.346,0-0.649,0.04-0.909,0.12s-0.475,0.188-0.646,0.325s-0.3,0.296-0.386,0.479s-0.13,0.374-0.13,0.574
		c0,0.301,0.054,0.543,0.161,0.728s0.243,0.333,0.407,0.444s0.345,0.199,0.543,0.263s0.389,0.127,0.571,0.191l1.381,0.451
		c0.415,0.132,0.78,0.283,1.097,0.451s0.582,0.368,0.796,0.598s0.377,0.496,0.489,0.796s0.167,0.649,0.167,1.046
		c0,0.428-0.088,0.825-0.263,1.189s-0.42,0.681-0.735,0.95s-0.689,0.479-1.125,0.632s-0.913,0.229-1.432,0.229
		c-0.533,0-0.989-0.061-1.367-0.182s-0.696-0.283-0.954-0.485s-0.464-0.434-0.619-0.694s-0.276-0.526-0.362-0.8h-0.52v-1.176h1.723
		c0,0.506,0.054,0.864,0.161,1.073s0.256,0.384,0.448,0.523s0.419,0.244,0.684,0.314s0.556,0.106,0.875,0.106
		c0.31,0,0.589-0.037,0.837-0.109s0.46-0.179,0.636-0.318s0.31-0.308,0.403-0.506s0.14-0.423,0.14-0.673
		c0-0.278-0.058-0.514-0.174-0.708s-0.266-0.359-0.448-0.496s-0.382-0.249-0.598-0.335s-0.425-0.162-0.625-0.226l-1.497-0.424
		c-0.328-0.1-0.628-0.228-0.899-0.383s-0.503-0.344-0.697-0.567s-0.343-0.484-0.448-0.783s-0.157-0.644-0.157-1.036
		c0-0.396,0.078-0.768,0.232-1.114s0.383-0.649,0.684-0.909s0.669-0.464,1.104-0.612s0.933-0.222,1.494-0.222
		c0.369,0,0.71,0.043,1.022,0.13s0.595,0.208,0.848,0.366s0.476,0.346,0.67,0.567s0.356,0.464,0.489,0.728h0.513v1.176h-1.675
		C108.694,43.221,108.621,42.92,108.475,42.719z"/>
	<path fill="#AF212F" d="M111.333,50.341c0-0.119,0.024-0.231,0.072-0.338s0.113-0.201,0.195-0.28s0.177-0.144,0.284-0.191
		s0.222-0.072,0.345-0.072c0.119,0,0.231,0.024,0.338,0.072s0.201,0.112,0.28,0.191s0.144,0.173,0.191,0.28s0.072,0.22,0.072,0.338
		c0,0.123-0.024,0.239-0.072,0.349s-0.112,0.206-0.191,0.291c-0.08,0.084-0.173,0.15-0.28,0.198s-0.22,0.071-0.338,0.071
		c-0.123,0-0.238-0.023-0.345-0.071s-0.202-0.114-0.284-0.198c-0.082-0.084-0.147-0.181-0.195-0.291S111.333,50.464,111.333,50.341z
		"/>
	<path fill="#AF212F" d="M122.051,40.805h3.363v1.176h-0.984v8.012h0.984v1.175h-3.363v-1.175h1.039v-3.726h-5.994v3.726h1.039
		v1.175h-3.363v-1.175h0.984v-8.012h-0.984v-1.176h3.363v1.176h-1.039v3.138h5.994v-3.138h-1.039V40.805z"/>
	<path fill="#AF212F" d="M127.049,50.341c0-0.119,0.023-0.231,0.072-0.338c0.047-0.107,0.111-0.201,0.193-0.28
		s0.178-0.144,0.285-0.191c0.105-0.048,0.221-0.072,0.344-0.072c0.119,0,0.232,0.024,0.34,0.072
		c0.105,0.048,0.199,0.112,0.279,0.191s0.145,0.173,0.191,0.28c0.049,0.107,0.072,0.22,0.072,0.338c0,0.123-0.023,0.239-0.072,0.349
		c-0.047,0.109-0.111,0.206-0.191,0.291c-0.08,0.084-0.174,0.15-0.279,0.198c-0.107,0.048-0.221,0.071-0.34,0.071
		c-0.123,0-0.238-0.023-0.344-0.071c-0.107-0.048-0.203-0.114-0.285-0.198c-0.082-0.084-0.146-0.181-0.193-0.291
		C127.072,50.581,127.049,50.464,127.049,50.341z"/>
	<path fill="#AF212F" d="M133.549,40.805h3.855c0.475,0,0.926,0.062,1.354,0.185c0.43,0.123,0.828,0.296,1.197,0.52
		s0.703,0.491,1.004,0.803s0.559,0.66,0.77,1.042c0.213,0.383,0.375,0.794,0.488,1.234c0.115,0.44,0.172,0.896,0.172,1.371
		c0,0.483-0.057,0.946-0.172,1.388c-0.113,0.442-0.275,0.857-0.488,1.244c-0.211,0.387-0.469,0.739-0.77,1.056
		s-0.635,0.588-1.004,0.813s-0.768,0.4-1.197,0.523c-0.428,0.124-0.879,0.184-1.354,0.184h-3.855v-1.175h0.984v-8.005h-0.984V40.805
		z M135.873,41.988v8.005h1.613c0.479,0,0.93-0.105,1.352-0.314c0.42-0.209,0.789-0.496,1.104-0.858s0.563-0.789,0.744-1.278
		c0.184-0.49,0.273-1.018,0.273-1.583c0-0.556-0.09-1.076-0.273-1.559c-0.182-0.483-0.43-0.903-0.744-1.261
		s-0.684-0.639-1.104-0.844c-0.422-0.205-0.873-0.308-1.352-0.308H135.873z"/>
	<path fill="#AF212F" d="M147.721,50.512c-0.27,0.25-0.566,0.456-0.893,0.615c-0.326,0.16-0.695,0.24-1.111,0.24
		c-0.346,0-0.664-0.055-0.953-0.164s-0.539-0.259-0.748-0.448c-0.211-0.189-0.373-0.409-0.49-0.66
		c-0.115-0.25-0.174-0.517-0.174-0.8c0-0.301,0.045-0.567,0.133-0.8c0.09-0.232,0.209-0.434,0.355-0.605
		c0.148-0.171,0.322-0.314,0.52-0.431c0.199-0.116,0.406-0.209,0.623-0.28s0.438-0.121,0.662-0.15
		c0.227-0.03,0.441-0.044,0.646-0.044c0.328,0,0.604,0.01,0.828,0.031c0.223,0.021,0.426,0.049,0.607,0.085l0.008-0.581
		c0-0.25-0.037-0.468-0.109-0.653c-0.074-0.185-0.176-0.337-0.309-0.458c-0.131-0.121-0.291-0.211-0.475-0.27
		c-0.186-0.059-0.391-0.089-0.619-0.089c-0.213,0-0.418,0.015-0.615,0.044c-0.195,0.03-0.379,0.068-0.551,0.116
		c-0.17,0.048-0.328,0.103-0.471,0.164c-0.145,0.062-0.266,0.126-0.365,0.195l-0.418-0.882c0.17-0.109,0.354-0.211,0.555-0.304
		c0.199-0.093,0.41-0.173,0.631-0.239c0.223-0.066,0.447-0.119,0.678-0.157s0.457-0.058,0.68-0.058c0.41,0,0.779,0.049,1.107,0.147
		s0.607,0.25,0.834,0.455c0.229,0.205,0.404,0.466,0.527,0.783s0.184,0.696,0.184,1.138l-0.006,3.541h0.785v1.175h-2.057V50.512z
		 M145.998,50.3c0.168,0,0.336-0.021,0.506-0.062c0.168-0.041,0.328-0.097,0.479-0.167s0.289-0.153,0.416-0.246
		c0.129-0.093,0.234-0.19,0.322-0.291l0.006-1.6h-1.477c-0.246,0-0.471,0.027-0.674,0.082c-0.201,0.055-0.377,0.134-0.525,0.239
		s-0.264,0.235-0.346,0.39s-0.123,0.333-0.123,0.533c0,0.187,0.035,0.35,0.104,0.489s0.164,0.255,0.289,0.349
		c0.127,0.093,0.275,0.164,0.449,0.212C145.596,50.276,145.787,50.3,145.998,50.3z"/>
	<path fill="#AF212F" d="M160.518,40.805h3.363v1.183h-0.896l-3.355,9.18h-1.881l-3.309-9.18h-0.916v-1.183h3.363v1.183h-0.902
		l2.66,7.991l2.85-7.991h-0.977V40.805z"/>
	<path fill="#AF212F" d="M164.373,44.086h2.311v5.906h1.066v1.175h-3.363v-1.175h1.012v-4.73h-1.025V44.086z M165.158,41.578
		c0-0.119,0.025-0.231,0.072-0.338c0.049-0.107,0.111-0.201,0.191-0.28s0.174-0.144,0.283-0.191s0.227-0.072,0.35-0.072
		c0.117,0,0.23,0.024,0.338,0.072s0.201,0.112,0.281,0.191c0.078,0.08,0.143,0.173,0.191,0.28c0.047,0.107,0.07,0.22,0.07,0.338
		c0,0.123-0.023,0.239-0.07,0.349c-0.049,0.109-0.113,0.206-0.191,0.291c-0.08,0.084-0.174,0.15-0.281,0.198
		s-0.221,0.072-0.338,0.072c-0.123,0-0.24-0.024-0.35-0.072s-0.203-0.114-0.283-0.198s-0.143-0.181-0.191-0.291
		C165.184,41.817,165.158,41.701,165.158,41.578z"/>
	<path fill="#AF212F" d="M173.58,49.993h0.998v-3.233c0-0.542-0.137-0.954-0.414-1.234c-0.275-0.28-0.67-0.42-1.186-0.42
		c-0.295,0-0.594,0.071-0.895,0.212s-0.586,0.317-0.855,0.526v4.149h0.998v1.175h-3.309v-1.175h0.984v-4.73h-0.984v-1.176h2.256
		v0.834h0.014c0.15-0.132,0.311-0.257,0.482-0.376c0.17-0.119,0.35-0.221,0.537-0.308c0.186-0.086,0.381-0.155,0.584-0.205
		s0.416-0.075,0.639-0.075c0.379,0,0.721,0.052,1.025,0.157c0.307,0.105,0.566,0.264,0.779,0.479
		c0.215,0.214,0.379,0.489,0.496,0.824c0.115,0.335,0.174,0.73,0.174,1.186v3.391h0.984v1.175h-3.309V49.993z"/>
	<path fill="#AF212F" d="M183.369,45.973c-0.191-0.342-0.434-0.592-0.729-0.752c-0.293-0.16-0.633-0.239-1.021-0.239
		c-0.295,0-0.574,0.062-0.834,0.185s-0.486,0.298-0.68,0.526s-0.346,0.505-0.459,0.831c-0.111,0.326-0.166,0.689-0.166,1.09
		c0,0.396,0.055,0.754,0.166,1.073c0.113,0.319,0.266,0.591,0.463,0.817c0.195,0.226,0.422,0.399,0.68,0.52s0.535,0.181,0.83,0.181
		c0.438,0,0.818-0.106,1.143-0.318c0.322-0.212,0.58-0.523,0.771-0.933l1.053,0.52c-0.137,0.292-0.305,0.554-0.506,0.786
		c-0.199,0.232-0.428,0.431-0.68,0.595c-0.254,0.164-0.531,0.291-0.834,0.379s-0.623,0.134-0.961,0.134
		c-0.492,0-0.947-0.093-1.363-0.277c-0.418-0.185-0.777-0.443-1.08-0.776s-0.539-0.729-0.707-1.189
		c-0.17-0.46-0.254-0.964-0.254-1.511s0.09-1.05,0.268-1.511s0.422-0.855,0.73-1.186c0.311-0.331,0.672-0.589,1.088-0.776
		c0.414-0.187,0.859-0.28,1.332-0.28c0.447,0,0.869,0.078,1.268,0.232c0.4,0.155,0.75,0.39,1.051,0.704h0.717v1.176H183.369z"/>
	<path fill="#AF212F" d="M185.844,44.086h2.311v5.906h1.066v1.175h-3.363v-1.175h1.012v-4.73h-1.025V44.086z M186.631,41.578
		c0-0.119,0.023-0.231,0.07-0.338c0.049-0.107,0.113-0.201,0.191-0.28c0.08-0.08,0.176-0.144,0.285-0.191s0.225-0.072,0.348-0.072
		c0.119,0,0.232,0.024,0.338,0.072c0.107,0.048,0.201,0.112,0.281,0.191s0.143,0.173,0.191,0.28c0.047,0.107,0.072,0.22,0.072,0.338
		c0,0.123-0.025,0.239-0.072,0.349c-0.049,0.109-0.111,0.206-0.191,0.291s-0.174,0.15-0.281,0.198
		c-0.105,0.048-0.219,0.072-0.338,0.072c-0.123,0-0.238-0.024-0.348-0.072s-0.205-0.114-0.285-0.198
		c-0.078-0.084-0.143-0.181-0.191-0.291C186.654,41.817,186.631,41.701,186.631,41.578z"/>
</g>
<g>
	<path fill="#575756" d="M92.539,60.419c0.104,1.088,0.728,1.399,1.471,1.399c0.36,0,0.776-0.072,1.127-0.232l0.096,0.568
		c-0.304,0.136-0.743,0.304-1.311,0.304c-1.383,0-2.119-0.943-2.119-2.071c0-1.095,0.704-2.007,1.919-2.007
		c0.975,0,1.687,0.6,1.687,1.655c0,0.112-0.008,0.248-0.032,0.384H92.539z M92.603,59.923h2.063c0-0.551-0.304-0.903-0.959-0.903
		C93.067,59.02,92.747,59.355,92.603,59.923z"/>
	<path fill="#575756" d="M95.907,62.114l0.088-0.695c0.168,0.151,0.624,0.399,1.224,0.399c0.503,0,0.783-0.176,0.783-0.488
		c0-0.407-0.464-0.56-0.783-0.647c-0.536-0.144-1.231-0.336-1.231-1.127c0-0.6,0.399-1.176,1.471-1.176
		c0.52,0,0.823,0.136,1.063,0.256l-0.088,0.656c-0.231-0.192-0.52-0.344-0.959-0.344c-0.448,0-0.76,0.159-0.76,0.527
		s0.296,0.464,0.912,0.647c0.384,0.112,1.119,0.352,1.119,1.167c0,0.521-0.296,1.168-1.495,1.168
		C96.555,62.458,96.091,62.242,95.907,62.114z"/>
	<path fill="#575756" d="M102.13,62.378v-2.095c0-0.928-0.24-1.264-0.936-1.264c-0.48,0-0.8,0.16-1.023,0.512v2.847h-0.728v-5.997
		h0.728v2.503c0.271-0.344,0.624-0.504,1.135-0.504c1.127,0,1.543,0.775,1.543,1.903v2.095H102.13z"/>
	<path fill="#575756" d="M106.618,62.378l-0.08-0.496c-0.296,0.384-0.848,0.576-1.199,0.576c-1,0-1.783-0.896-1.783-2.039
		c0-1.071,0.688-2.039,1.783-2.039c0.352,0,0.863,0.088,1.199,0.496v-2.495h0.72v5.997H106.618z M104.291,60.419
		c0,0.768,0.416,1.399,1.103,1.399c0.576,0,1.224-0.392,1.224-1.375c0-0.944-0.648-1.424-1.224-1.424
		C104.707,59.02,104.291,59.619,104.291,60.419z"/>
	<path fill="#575756" d="M111.401,62.458h-0.056c-0.696,0-0.848-0.208-1.007-0.576c-0.296,0.344-0.696,0.576-1.199,0.576
		c-0.728,0-1.208-0.479-1.208-1.136c0-1.104,1.343-1.383,2.343-1.399c0-0.743-0.304-0.903-0.855-0.903
		c-0.296,0-0.616,0.064-1.032,0.353l-0.104-0.584c0.312-0.24,0.807-0.408,1.327-0.408c0.991,0,1.383,0.464,1.383,1.879v0.8
		c0,0.56,0.032,0.823,0.448,0.823h0.072L111.401,62.458z M110.274,60.419c-1.144,0.04-1.607,0.28-1.607,0.863
		c0,0.424,0.248,0.6,0.607,0.6c0.384,0,0.768-0.207,1-0.527V60.419z"/>
	<path fill="#575756" d="M113.81,62.378h-0.808l-1.495-3.918h0.8l1.095,3.126l1.087-3.126h0.808L113.81,62.378z"/>
	<path fill="#575756" d="M115.858,57.581v-0.8h0.72v0.8H115.858z M115.858,62.378V58.46h0.72v3.918H115.858z"/>
	<path fill="#575756" d="M120.369,62.378v-2.159c0-0.831-0.279-1.199-1.023-1.199c-0.447,0-0.871,0.16-1.071,0.512v2.847h-0.72
		V58.46h0.561l0.079,0.416c0.448-0.4,0.88-0.496,1.296-0.496c1.144,0,1.599,0.712,1.599,1.839v2.159H120.369z"/>
	<path fill="#575756" d="M121.803,60.411c0-1.144,0.64-2.031,1.943-2.031c0.592,0,0.976,0.104,1.207,0.232l-0.112,0.647
		c-0.312-0.152-0.647-0.24-1.015-0.24c-0.872,0-1.288,0.52-1.288,1.392c0,0.855,0.416,1.415,1.288,1.415
		c0.367,0,0.711-0.088,1.023-0.24l0.096,0.576c-0.232,0.151-0.56,0.296-1.191,0.296C122.45,62.458,121.803,61.507,121.803,60.411z"
		/>
	<path fill="#575756" d="M125.658,57.581v-0.8h0.72v0.8H125.658z M125.658,62.378V58.46h0.72v3.918H125.658z"/>
	<path fill="#575756" d="M127.323,62.378V61.69h0.72v0.688H127.323z"/>
	<path fill="#575756" d="M131.801,62.378v-2.159c0-0.831-0.279-1.199-1.023-1.199c-0.447,0-0.871,0.16-1.071,0.512v2.847h-0.72
		V58.46h0.561l0.079,0.416c0.448-0.4,0.88-0.496,1.296-0.496c1.144,0,1.599,0.712,1.599,1.839v2.159H131.801z"/>
	<path fill="#575756" d="M134.697,62.458h-0.231c-0.76,0-1.016-0.472-1.016-0.943v-5.134h0.72v4.718c0,0.672,0.08,0.783,0.632,0.783
		L134.697,62.458z"/>
</g>
<g>
	<path fill="#FFFFFF" d="M47.731,27.796v17.45h0.073c4.915-3.048,13.977-4.781,16.75-4.993c0.116,0.146,0.338-0.041,0.221-0.187
		c-0.607-0.761-1.198-1.535-1.867-2.244c-0.657-0.694-1.425-1.285-2.184-1.862c-1.434-1.094-2.976-2.033-4.604-2.806
		c-1.646-0.781-3.433-1.239-5.046-2.088c-0.756-0.397-1.34-0.917-1.901-1.554c-0.642-0.729-0.603-0.653-1.247-1.562
		C47.826,27.689,47.788,27.689,47.731,27.796L47.731,27.796z"/>
	<path fill="#FFFFFF" d="M66.139,65.599c2.193-3.405,3.466-7.462,3.466-11.815c0-4.384-1.292-8.467-3.514-11.889v-2.979h-2.323
		c-3.992-4.3-9.692-6.991-16.021-6.991c-6.329,0-12.029,2.691-16.021,6.991h-2.38v3.065c-2.188,3.404-3.458,7.454-3.458,11.802
		c0,4.354,1.273,8.41,3.466,11.815H66.139L66.139,65.599z"/>
	<path fill="#FBEA2A" d="M44.692,50.643l-0.098,0.09l-0.07,0.063l-0.056,0.066l-0.053,0.068l-0.105,0.122L44.09,51.35l-0.204,0.344
		l-0.186,0.379l-0.161,0.429l-0.108,0.423l-0.06,0.426l-0.021,0.423l0.021,0.438l0.052,0.426l0.123,0.477l0.15,0.399l0.294,0.547
		l0.498-1.427l0.27-0.516l0.235-0.767h0.011l-0.028-0.737l-0.011-0.656l-0.08-0.799L44.692,50.643L44.692,50.643z"/>
	<polyline fill="#FBEA2A" points="50.742,50.629 50.473,51.664 50.638,53.043 50.521,53.584 50.715,55.031 51.295,56.328 
		51.617,55.77 51.919,55.055 52.043,54.502 52.097,53.76 52.055,53.139 51.921,52.544 51.815,52.24 51.61,51.776 51.36,51.335 
		51.051,50.941 50.742,50.629 	"/>
	<path fill="#E5262A" d="M40.529,48.766l-0.041,0.103l-0.417,0.667c0,0-0.334,0.689-0.33,0.691c0.004,0.002-0.278,0.676-0.278,0.676
		l-0.223,0.747l-0.121,0.526l-0.146,1.232l0.032,1.126l0.166,1.144l0.19,0.715l0.195,0.53l0.346,0.8l0.259,0.464l0.41,0.636
		l0.49,0.634l0.731,0.76l0.319-0.576l0.643-1.157c0,0,0.603-1.271,0.597-1.276c-0.006-0.008,0.632-1.176,0.634-1.168
		c0.002,0.009-0.091-0.116-0.091-0.116l-0.091-0.174l-0.14-0.329l-0.154-0.429l-0.097-0.416l-0.055-0.617l0.011-0.65
		c0,0,0.156-0.758,0.153-0.769c-0.002-0.01,0.197-0.507,0.197-0.507l0.271-0.524l0.376-0.534c0,0,0.318-0.323,0.32-0.325
		c0.002-0.001-0.085-0.347-0.079-0.34c0.006,0.005-0.176-1.177-0.176-1.177l-0.012-0.63l-0.208-0.228c0,0-0.471-0.061-0.471-0.068
		c0-0.008-1.176,0.262-1.168,0.265c0.008,0.005-1.333,0.333-1.337,0.325C41.231,48.784,40.529,48.766,40.529,48.766L40.529,48.766z"
		/>
	<polyline fill="#E5262A" points="47.379,58.118 47.267,60.696 46.898,62.507 47.512,62.539 47.604,59.603 47.727,58.906 
		47.451,57.995 47.379,58.118 	"/>
	<path fill="#E5262A" d="M53.923,59.985l-0.547,0.462l-0.547,0.45l-0.133-0.56l-0.45-1.41l-0.146-0.485l-0.304-0.898
		c0,0-0.435-0.986-0.438-0.981c-0.003,0.006-0.102-0.216-0.102-0.216l0.25-0.368l0.148-0.259l0.271-0.707l0.153-0.83l0.004-0.762
		c0,0-0.126-0.742-0.125-0.737c0.002,0.004-0.291-0.777-0.291-0.777l-0.21-0.414l-0.395-0.536l-0.32-0.323l0.177-0.672l0.336-1.095
		c0,0,0.169-0.418,0.168-0.425c-0.002-0.006,0.214-0.261,0.214-0.261s0.191-0.337,0.19-0.333c-0.002,0.004,0.863-0.411,0.863-0.411
		l1.131,0.039l0.601,0.664l0.672,0.932l0.555,0.993l0.395,0.989l0.261,0.982l0.126,0.857l0.042,0.725l-0.037,0.988l-0.119,0.9
		l-0.258,0.974l-0.391,0.979l-0.284,0.567l-0.262,0.431l-0.08,0.142l-0.467,0.633L54.4,59.449l-0.487,0.51v0.006L53.923,59.985
		L53.923,59.985z"/>
	<polyline fill="#E5262A" points="44.22,61.533 44.325,61.856 44.106,61.763 44.22,61.533 	"/>
	<path fill="#5982C2" d="M46.395,65.603l1.083-0.002l-0.131-1.709l0.171-1.348l-0.627-0.042l-0.244,1.465l-0.254,1.431
		L46.395,65.603L46.395,65.603z"/>
	<line fill="none" x1="49.767" y1="64.482" x2="49.622" y2="65.526"/>
	<path fill="#5982C2" d="M49.611,65.604c0,0,0.047-0.458,0.043-0.466c-0.002-0.008,0.216-1.031,0.216-1.031l0.268-0.988
		c0,0,0.125-0.677,0.13-0.677c0.006-0.002,0.324,0.482,0.327,0.488c0.003,0.005,0.691,1.092,0.691,1.092s0.493,1.125,0.499,1.133
		c0.006,0.006,0.118,0.447,0.118,0.447L49.611,65.604L49.611,65.604z"/>
	<path fill="#5982C2" d="M54.053,65.3l0.823-0.501l1.175-0.874l0.803-0.691l0.316-0.333l0.861-0.984l0.367-0.475l0.348-0.505
		l0.584-0.99l0.501-1.075l0.408-1.093l0.284-1.077l0.246-1.38l0.078-1.076l-0.013-1.225l-0.103-1.12l-0.213-1.088l-0.28-0.998
		l-0.351-0.979l-0.462-0.991l-0.298-0.561l-1.988-0.041l-1.307,0.231l-1.479,0.031l-0.556-0.005l0.663,0.699l0.647,0.887
		l0.574,1.027l0.357,0.94l0.292,1.126l0.119,0.944l0.023,0.966l-0.072,0.9l-0.238,1.123l-0.41,1.159l-0.362,0.761l-0.524,0.795
		l-0.652,0.859l-0.96,0.889l-0.44,0.342l0.384,1.449l0.523,1.206l0.202,1.316L54.053,65.3L54.053,65.3z"/>
	<polyline fill="#5982C2" points="57.208,44.702 55.39,45.425 56.877,45.563 57.938,45.556 57.601,45.149 57.208,44.702 	"/>
	<path fill="#5982C2" d="M50.256,44.193l0.659-0.901l0.227-1.168l-0.039-0.729l-0.188-0.338l0.611,0.157l0.776,0.29l0.564,0.203
		l0.838,0.392l1.019,0.588c0,0,0.809,0.577,0.809,0.569c0-0.008-1.692,0.419-1.692,0.419l-0.788,0.303l-1.606,0.215l-0.948,0.523
		l-0.749-0.295l0.5-0.233L50.256,44.193L50.256,44.193z"/>
	<path fill="#5982C2" d="M44.93,40.97l-0.276,1.465c0,0,0.293,0.93,0.304,0.926c0.01-0.003,0.577,0.774,0.577,0.774l0.114,0.183
		l-0.007,0.2l-0.622,0.47l-2.177,0.598l-3.161,0.183h-0.331l-1.845-0.217l0.124-0.159l0.812-0.871l0.815-0.768l1.099-0.822
		l0.598-0.383l0.912-0.515l1.485-0.629l0.822-0.266L44.93,40.97"/>
	<path fill="#5982C2" d="M38.175,47.414l-1.921-0.06l-0.127,0.29l-0.451,0.927l-0.296,0.725l-0.436,1.437l-0.25,1.436l-0.109,1.686
		l0.121,1.64l0.207,1.201l0.197,0.709l0.322,1.017l0.33,0.754c0,0,0.458,0.976,0.451,0.957c-0.006-0.019,0.587,0.963,0.587,0.953
		c0-0.007,0.462,0.658,0.462,0.658l0.596,0.713l0.46,0.486l0.682,0.663l0.658,0.542l1.087-1.141c0,0,0.352-0.748,0.355-0.731
		c0.003,0.015,0.72-2.032,0.72-2.032l-0.244-0.222l-0.782-0.873l-0.411-0.558l-0.584-1.057l-0.228-0.525l-0.346-1.071l-0.139-0.693
		l-0.129-1.297l0.031-0.59l0.058-0.794l0.195-0.938l0.102-0.34l0.405-1.133l0.232-0.449c0,0,0.541-0.892,0.543-0.908
		c0.003-0.016-1.499-0.333-1.499-0.333s-0.781-0.344-0.774-0.352"/>
	<path fill="#5982C2" d="M42.008,65.601l-0.467-0.238l0.17-0.209l0.6-0.965L42.3,64.192h-0.035c0,0-0.027,0.043-0.027,0.048
		c0,0.006-0.02-0.023-0.02-0.023l0.03-0.037l0.031-0.013l0.284-0.603l0.591-0.372l0.381-0.456l0.269-0.421l0.263-0.573
		c0,0,0.227,0.104,0.232,0.104c0.006-0.002,0.171,0.536,0.171,0.536l0.104,0.901l0.021,0.938l-0.131,1.003l-0.042,0.375
		L42.008,65.601L42.008,65.601z"/>
	<path fill="#3F4245" d="M38.807,65.597l-4.008,0.002l-0.889-1.044l-0.826-1.155l-0.809-1.378l-0.425-0.863l-0.51-1.179l-0.419-1.27
		l-0.176-0.669l-0.139-0.505l-0.219-1.287l-0.127-1.1l-0.042-0.942v-0.638l0.037-0.911l0.091-1.027l0.164-1.039l0.183-0.887
		l0.334-1.173l0.364-1.05l0.273-0.644l0.942-0.012l0.353-0.176l0.668-0.056l0.765,0.178l1.872,0.607l-0.474,0.948l-0.51,1.246
		l-0.316,1.086L34.7,52.05l-0.104,1.198l0.024,1.598l0.127,0.996l0.128,0.717l0.377,1.387l0.309,0.825l0.334,0.753l0.498,0.894
		l0.389,0.632l0.273,0.383l0.511,0.662l0.516,0.62l0.365,0.37l0.414,0.4l0.401,0.335l0.376,0.321l-0.328,0.514l-0.287,0.451
		l-0.176,0.456L38.807,65.597L38.807,65.597z"/>
	<polyline fill="#3F4245" points="41.34,65.597 41.521,65.364 41.994,65.597 41.976,65.601 41.614,65.603 41.34,65.597 	"/>
	<polyline fill="#3F4245" points="32.481,45.232 32.421,45.232 32.481,45.172 32.887,44.496 33.316,43.872 33.774,43.203 
		34.188,42.668 34.556,42.255 34.924,41.857 35.458,41.285 36.067,40.729 36.631,40.24 37.105,39.872 37.683,39.458 38.405,38.947 
		39.435,38.369 39.992,38.083 40.766,37.722 41.502,37.428 42.39,37.128 43.134,36.895 44.202,36.646 45.119,36.481 45.991,36.383 
		47.193,36.293 47.81,36.278 48.931,36.316 49.765,36.406 50.659,36.526 51.472,36.691 52.215,36.879 53.201,37.173 54.238,37.534 
		54.997,37.88 55.764,38.248 56.395,38.586 57.185,39.052 57.853,39.511 58.424,39.932 58.965,40.383 59.582,40.924 59.995,41.337 
		57.635,42.353 56.681,42.901 55.929,43.194 55.508,43.255 55.44,43.165 54.658,42.668 54.447,42.525 54.079,42.307 53.598,42.067 
		53.237,41.879 52.711,41.638 51.711,41.27 50.944,41.06 50.305,40.067 49.636,39.451 49.11,39.196 48.681,38.925 48.035,38.872 
		47.44,38.925 46.802,39.143 46.117,39.594 45.711,40.083 45.155,40.496 44.907,40.962 44.523,41.06 43.734,41.27 43.042,41.511 
		42.389,41.796 41.554,42.194 40.833,42.623 40.104,43.104 39.629,43.458 38.81,44.157 38.494,44.45 37.855,45.112 37.48,45.585 
		36.712,45.458 34.089,45.458 32.481,45.232 	"/>
	<path fill="#3F4245" d="M57.22,44.738c0.016-0.022,0.039,0.017,0.039,0.017l0.165,0.192l0.352,0.385l0.17,0.237
		c0,0,2.079-0.011,2.062-0.006c-0.016,0.006,2.231,0.187,2.248,0.187c0.016,0,0.896-0.209,0.896-0.209l-0.39-0.715l-0.44-0.693
		l-0.396-0.583l-0.5-0.637l-0.211-0.234c0,0-1.053,0.74-1.058,0.701c-0.006-0.038-0.61,0.5-0.61,0.5l-0.621,0.363l-0.913,0.281
		L57.22,44.738"/>
	<polyline fill="#3F4245" points="63.875,47.036 63.994,47.333 64.211,47.943 64.477,48.705 64.68,49.454 64.879,50.343 
		65.074,51.529 65.176,52.401 65.203,53.234 65.229,54.218 65.189,54.846 65.069,56.134 64.862,57.453 64.587,58.437 64.149,59.861 
		63.866,60.57 63.454,61.513 63.063,62.239 62.771,62.73 62.404,63.306 61.873,64.095 61.426,64.669 61.067,65.112 60.745,65.493 
		60.647,65.599 54.274,65.603 54.081,65.281 54.27,65.17 54.972,64.741 55.329,64.494 55.908,64.049 56.402,63.64 56.864,63.202 
		57.257,62.809 57.727,62.287 58.152,61.775 58.703,60.994 59.06,60.412 59.355,59.872 59.643,59.273 59.902,58.702 60.068,58.271 
		60.263,57.66 60.433,57.049 60.546,56.575 60.696,55.753 60.797,54.992 60.85,53.979 60.842,53.279 60.789,52.634 60.619,51.362 
		60.416,50.357 60.129,49.483 59.821,48.709 59.452,47.903 59.145,47.292 60.704,47.303 61.79,47.093 62.77,47.061 63.041,47.178 
		63.875,47.036 	"/>
	<g>
		<path fill="#221F1F" d="M66.178,61.239c-0.673-0.39-1.018-1.057-1.27-1.765c-0.258-0.724-0.468-1.515-0.481-2.285
			c-0.029-1.802,0.74-3.562,1.117-5.3c0.413-1.905,0.542-3.853,0.466-5.796c-0.036-0.915-0.096-1.84-0.27-2.74
			c-0.189-0.984-0.529-1.935-0.829-2.889c-0.055-0.176-0.341-0.128-0.286,0.05c0.3,0.957,0.623,1.906,0.829,2.889
			c0.219,1.042,0.256,2.139,0.283,3.2c0.053,2.063-0.185,4.117-0.684,6.118c-0.415,1.665-1.074,3.334-0.877,5.08
			c0.077,0.686,0.315,1.402,0.559,2.046c0.251,0.663,0.652,1.27,1.275,1.63C66.172,61.57,66.34,61.334,66.178,61.239z"/>
		<path fill="#221F1F" d="M47.674,26.528c-0.063,0.004-0.123,0.045-0.129,0.126c-0.027,0.33,0.019,0.641,0.113,0.937v17.45h0.073
			V27.796c0.14,0.349,0.342,0.676,0.569,0.991c0.471,0.655,1.035,1.301,1.683,1.785c1.44,1.078,3.285,1.511,4.923,2.188
			c1.798,0.745,3.489,1.716,5.067,2.853c0.832,0.6,1.661,1.236,2.399,1.948c0.783,0.755,1.433,1.641,2.11,2.488
			c0.116,0.146,0.338-0.042,0.221-0.188c-0.607-0.761-1.198-1.535-1.867-2.243c-0.656-0.694-1.425-1.285-2.183-1.863
			c-1.434-1.094-2.976-2.032-4.604-2.806c-1.646-0.781-3.433-1.24-5.046-2.088c-0.757-0.397-1.341-0.917-1.902-1.553
			c-0.642-0.729-1.35-1.595-1.265-2.626C47.843,26.577,47.755,26.523,47.674,26.528z"/>
	</g>
	<path fill="#221F1F" d="M65.173,41.2c-0.169-0.485-0.273-0.98-0.579-1.404c-0.109-0.152-0.331,0.037-0.221,0.188
		c0.287,0.399,0.378,0.886,0.538,1.341C64.973,41.5,65.234,41.375,65.173,41.2L65.173,41.2z"/>
	<line fill="none" stroke="#221F1F" stroke-width="0.1" x1="47.722" y1="45.042" x2="65.192" y2="60.789"/>
	<path fill="#221F1F" d="M66.037,38.825l-18.346,6.124l0.061,0.185l18.346-6.125L66.037,38.825z"/>
	<path fill="#221F1F" d="M61.53,37.576c0.479,0.249,0.861,0.804,1.223,1.194c0.455,0.492,0.955,1,1.222,1.623
		c0.103,0.24,0.211,0.476,0.322,0.713c0.153,0.327,0.193,0.655,0.277,1.001c0.157,0.652,0.332,1.254,0.411,1.926
		c0.065,0.558,0.922,0.403,0.857-0.151c-0.169-1.443-0.582-2.815-1.2-4.126c-0.296-0.628-0.878-1.172-1.344-1.675
		c-0.449-0.485-0.872-1.01-1.466-1.319C61.334,36.5,61.04,37.321,61.53,37.576L61.53,37.576z"/>
	<path fill="#221F1F" d="M61.716,37.866c0.177,0.25,0.386,0.471,0.581,0.707c0.193,0.235,0.318,0.524,0.463,0.79
		c0.209,0.384,0.455,0.689,0.868,0.854c0.44,0.176,0.591,0.441,0.591,0.922c0,0.226-0.012,0.444,0.062,0.663
		c0.11,0.33,0.173,0.632,0.221,0.976c0.045,0.328,0.271,0.611,0.342,0.937c0.04,0.183,0.326,0.133,0.286-0.05
		c-0.073-0.331-0.25-0.613-0.343-0.937c-0.087-0.308-0.086-0.614-0.201-0.92c-0.182-0.488,0.091-1.196-0.348-1.593
		c-0.152-0.137-0.318-0.2-0.509-0.269c-0.391-0.14-0.583-0.483-0.772-0.827c-0.291-0.534-0.67-0.946-1.018-1.438
		C61.829,37.526,61.608,37.714,61.716,37.866L61.716,37.866z"/>
	<path fill="#221F1F" d="M61.428,37.487c0.117,0.224,0.286,0.405,0.449,0.593c0.123,0.142,0.344-0.045,0.221-0.188
		c-0.146-0.169-0.304-0.331-0.408-0.53C61.604,37.196,61.341,37.321,61.428,37.487L61.428,37.487z"/>
	<path fill="#221F1F" d="M62.573,38.616c0.341,0.364,0.422,1.01,0.917,1.22c0.172,0.073,0.271-0.199,0.101-0.272
		c-0.215-0.092-0.325-0.362-0.426-0.556c-0.106-0.203-0.212-0.411-0.37-0.58C62.667,38.292,62.444,38.479,62.573,38.616
		L62.573,38.616z"/>
	<path fill="#221F1F" d="M44.44,48.375c-0.41-0.565-1.591-0.035-2.1,0.1c-0.667,0.177-1.411,0.271-2.099,0.221
		c-0.448-0.032-0.878-0.222-1.301-0.362c-0.506-0.168-0.884-0.439-0.712-1.032c0.116-0.396,0.597-0.399,0.918-0.446
		c0.291-0.042,0.534-0.182,0.787-0.324c0.721-0.409,1.441-0.596,2.244-0.784c0.771-0.181,1.539-0.205,2.316-0.321
		c0.35-0.052,0.698-0.152,1.031-0.267c0.375-0.129,0.713-0.352,1.125-0.328c0.094,0.005,0.107-0.14,0.014-0.145
		c-0.244-0.015-0.459,0.045-0.687,0.128c-0.444,0.162-0.863,0.331-1.328,0.434c-0.475,0.105-0.967,0.094-1.449,0.155
		c-0.471,0.059-0.935,0.171-1.396,0.282c-0.339,0.082-0.71,0.136-1.037,0.26c-0.42,0.159-0.794,0.403-1.188,0.613
		c-0.417,0.223-1.209,0.079-1.442,0.591c-0.154,0.341-0.143,0.857,0.205,1.092c0.306,0.205,0.706,0.28,1.052,0.397
		c0.39,0.131,0.752,0.207,1.165,0.218c0.65,0.017,1.345-0.11,1.97-0.283c0.424-0.118,1.473-0.556,1.799-0.105
		C44.383,48.545,44.495,48.451,44.44,48.375L44.44,48.375z"/>
	<path fill="#221F1F" d="M39.732,48.408c1.306-0.01,2.602-0.167,3.78-0.755c0.606-0.303,1.242-0.555,1.857-0.839
		c0.783-0.361,1.484-0.351,2.32-0.419c0.225-0.018,0.498-0.039,0.52-0.309c0.01-0.123-0.072-0.273-0.119-0.38
		c-0.095-0.219-0.13-0.439-0.182-0.67c-0.176-0.796-0.947-0.489-1.421-0.114c-0.074,0.059,0.021,0.17,0.094,0.111
		c0.258-0.204,0.888-0.604,1.125-0.15c0.14,0.269,0.124,0.605,0.252,0.886c0.287,0.627-0.562,0.491-0.958,0.504
		c-0.419,0.012-0.815,0.075-1.212,0.21c-0.888,0.304-1.775,0.761-2.617,1.175c-1.031,0.507-2.295,0.595-3.426,0.604
		C39.652,48.263,39.638,48.409,39.732,48.408L39.732,48.408z"/>
	<path fill="#221F1F" d="M43.891,47.314c0.442,0.116,0.667,0.625,1.037,0.873c0.378,0.253,0.78,0.379,1.233,0.391
		c0.093,0.003,0.107-0.141,0.014-0.144c-0.528-0.015-1.043-0.198-1.424-0.574c-0.258-0.255-0.438-0.584-0.81-0.682
		C43.852,47.156,43.801,47.292,43.891,47.314L43.891,47.314z"/>
	<path fill="#221F1F" d="M49.029,48.66c0.42-0.017,0.835,0.094,1.253,0.026c0.093-0.015,0.067-0.158-0.025-0.142
		c-0.405,0.065-0.808-0.043-1.214-0.028C48.951,48.519,48.937,48.664,49.029,48.66L49.029,48.66z"/>
	<path fill="#221F1F" d="M51.959,65.586c-0.101-0.682-0.36-1.279-0.742-1.852c-0.415-0.621-0.809-1.282-1.282-1.861
		c-0.492-0.601-0.911-1.372-1.246-2.078c-0.208-0.438-0.415-0.915-0.562-1.377c-0.046-0.143-0.073-0.286-0.123-0.427
		c-0.063-0.174-0.222-0.311-0.295-0.48c-0.038-0.087-0.169-0.024-0.131,0.061c0.064,0.148,0.053,0.124,0.146,0.259
		c0.167,0.238,0.216,0.474,0.302,0.743c0.106,0.334,0.271,0.654,0.405,0.978c0.295,0.704,0.698,1.392,1.093,2.046
		c0.159,0.262,0.397,0.48,0.575,0.731c0.233,0.331,0.439,0.68,0.672,1.011c0.499,0.711,0.917,1.396,1.046,2.272
		C51.83,65.704,51.973,65.679,51.959,65.586L51.959,65.586z"/>
	<path fill="#221F1F" d="M50.48,53.558c0.076,0.507,0.005,0.967,0.2,1.449c0.214,0.528,0.394,1.079,0.626,1.599
		c0.455,1.018,0.794,2.092,1.154,3.146c0.359,1.052,0.367,2.177,0.876,3.179c0.298,0.589,0.43,1.09,0.441,1.753
		c0.007,0.362,0.198,0.673,0.397,0.961c0.053,0.076,0.164-0.018,0.111-0.094c-0.337-0.488-0.333-0.932-0.392-1.495
		c-0.051-0.489-0.276-0.891-0.494-1.319c-0.478-0.94-0.475-2.053-0.809-3.047c-0.334-0.994-0.629-2.052-1.083-2.999
		c-0.22-0.46-0.37-0.954-0.565-1.425c-0.149-0.362-0.272-0.677-0.283-1.072c-0.006-0.225-0.004-0.438-0.038-0.659
		C50.61,53.439,50.467,53.466,50.48,53.558L50.48,53.558z"/>
	<path fill="#221F1F" d="M50.098,54.342c0.239-0.335,0.472-0.65,0.569-1.058c0.104-0.436-0.044-0.918-0.094-1.351
		c-0.076-0.665,0.286-1.384,0.475-2.01c0.172-0.572,0.221-1.168,0.594-1.653c0.057-0.075-0.063-0.157-0.119-0.083
		c-0.283,0.367-0.364,0.733-0.471,1.177c-0.138,0.571-0.334,1.128-0.512,1.689c-0.156,0.493-0.115,0.926-0.037,1.43
		c0.116,0.747-0.106,1.19-0.524,1.776C49.925,54.336,50.044,54.419,50.098,54.342L50.098,54.342z"/>
	<path fill="#221F1F" d="M50.631,48.311c0.336-0.064,0.494-0.321,0.659-0.603c0.362-0.619,0.857-1.029,1.502-1.336
		c1.122-0.534,2.374-0.734,3.502-1.266c1.072-0.505,2.349-0.457,3.324-1.178c0.264-0.195,0.488-0.439,0.752-0.634
		c0.282-0.208,0.602-0.36,0.889-0.56c0.32-0.224,0.612-0.494,0.964-0.668c0.259-0.127,0.566-0.137,0.831-0.262
		c0.085-0.04,0.023-0.171-0.062-0.131c-0.224,0.106-0.461,0.134-0.691,0.213c-0.273,0.095-0.489,0.251-0.717,0.426
		c-0.502,0.384-1.077,0.668-1.564,1.072c-0.541,0.448-0.997,0.786-1.684,0.979c-0.601,0.168-1.218,0.211-1.797,0.458
		c-0.55,0.234-1.073,0.497-1.643,0.689c-0.62,0.208-1.252,0.373-1.864,0.604c-0.506,0.19-0.967,0.465-1.362,0.835
		c-0.349,0.326-0.56,1.121-1.063,1.218C50.514,48.185,50.539,48.327,50.631,48.311L50.631,48.311z"/>
	<path fill="#221F1F" d="M62.645,41.257c0.189,0.427,0.626,0.821,1.042,0.38c0.2-0.213,0.491-0.271,0.67-0.496
		c0.064-0.081,0.068-0.224,0.057-0.319c-0.032-0.247-0.028-0.479-0.024-0.727c0.001-0.093-0.144-0.107-0.145-0.013
		c-0.003,0.194-0.025,0.386-0.001,0.581c0.026,0.213,0.095,0.381-0.171,0.532c-0.075,0.042-0.159,0.071-0.236,0.109
		c-0.125,0.061-0.205,0.18-0.297,0.278c-0.326,0.346-0.648-0.125-0.764-0.388C62.737,41.109,62.607,41.171,62.645,41.257
		L62.645,41.257z"/>
	<path fill="#221F1F" d="M53.131,43.995c0.598-0.227,1.198-0.44,1.823-0.58c0.492-0.109,0.985-0.108,1.452-0.312
		c0.51-0.221,0.984-0.566,1.487-0.812c0.55-0.269,1.119-0.5,1.688-0.724c0.628-0.248,1.277-0.404,1.93-0.57
		c0.384-0.098,0.717-0.153,0.971-0.47c0.34-0.425,0.781-0.734,1.319-0.861c0.221-0.052,0.438-0.104,0.663-0.134
		c0.548-0.073-0.081,0.24-0.221,0.338c-0.076,0.054,0.018,0.165,0.094,0.111c0.214-0.15,0.461-0.215,0.547-0.482
		c0.015-0.046-0.014-0.09-0.061-0.098c-0.749-0.12-1.542,0.247-2.135,0.667c-0.136,0.097-0.229,0.241-0.325,0.375
		c-0.227,0.316-0.701,0.365-1.057,0.456c-0.606,0.154-1.204,0.309-1.788,0.536c-1.048,0.409-2.067,0.871-3.03,1.456
		c-0.514,0.313-1.159,0.29-1.732,0.418c-0.577,0.129-1.136,0.343-1.688,0.553C52.982,43.897,53.044,44.028,53.131,43.995
		L53.131,43.995z"/>
	<path fill="#221F1F" d="M48.77,45.224c0.674,0.154,1.038,0.023,1.612-0.355c0.899-0.593,1.789-0.92,2.882-0.763
		c0.092,0.013,0.105-0.131,0.013-0.145c-0.681-0.098-1.334-0.026-1.979,0.215c-0.314,0.118-0.595,0.307-0.873,0.49
		c-0.224,0.147-0.444,0.295-0.681,0.421c-0.29,0.153-0.627,0.068-0.925,0C48.73,45.067,48.679,45.203,48.77,45.224L48.77,45.224z"/>
	<path fill="#221F1F" d="M48.594,43.658c0.291,0.268,0.632,0.503,0.943,0.751c0.292,0.234,0.657,0.339,1.018,0.408
		c0.245,0.046,0.495,0.056,0.737,0.121c0.221,0.059,0.409,0.201,0.638,0.256c0.396,0.095,0.83,0.049,1.231,0.021
		c1.127-0.078,2.154,0.356,3.27,0.406c1.146,0.051,2.297-0.019,3.445,0.027c0.546,0.021,1.095,0.048,1.639,0.103
		c0.468,0.048,0.886,0.1,1.342-0.037c0.576-0.173,1.168-0.273,1.764-0.36c0.296-0.043,0.597-0.08,0.896-0.069
		c0.042,0.002,0.083,0.006,0.125,0.014c0.412,0.058-0.234,0.48-0.252,0.49c-0.102,0.055-0.228,0.117-0.302,0.208
		c-0.136,0.167-0.218,0.388-0.369,0.541c-0.134,0.138-0.375,0.231-0.553,0.305c-0.391,0.165-0.981,0.35-1.389,0.162
		c-0.085-0.04-0.135,0.097-0.05,0.136c0.598,0.277,1.451-0.099,1.97-0.408c0.131-0.078,0.21-0.177,0.291-0.301
		c0.174-0.268,0.272-0.406,0.556-0.56c0.209-0.113,0.388-0.305,0.342-0.563c-0.089-0.509-2.541,0.094-2.914,0.217
		c-0.66,0.217-1.285,0.086-1.96,0.039c-0.683-0.047-1.366-0.073-2.051-0.089c-1.29-0.029-2.634,0.149-3.893-0.199
		c-0.527-0.146-1.051-0.227-1.6-0.221c-0.594,0.004-1.176,0.125-1.754-0.073c-0.183-0.062-0.329-0.19-0.526-0.219
		c-0.298-0.043-0.597-0.077-0.89-0.146c-0.298-0.071-0.558-0.229-0.794-0.419c-0.26-0.208-0.556-0.409-0.799-0.633
		C48.637,43.501,48.526,43.594,48.594,43.658L48.594,43.658z"/>
	<path fill="#221F1F" d="M51.638,48.303c0.574-1.037,1.615-0.8,2.595-0.693c0.854,0.093,1.752-0.084,2.59-0.226
		c1.043-0.177,2.046-0.024,3.092,0.013c0.977,0.035,1.906-0.356,2.874-0.295c0.094,0.005,0.107-0.139,0.014-0.144
		c-0.456-0.03-0.891,0.054-1.335,0.146c-0.579,0.121-1.134,0.165-1.727,0.143c-0.564-0.021-1.125-0.089-1.688-0.117
		c-0.478-0.025-0.96,0.062-1.429,0.141c-1.092,0.184-2.102,0.229-3.199,0.083c-0.778-0.105-1.516,0.163-1.906,0.867
		C51.474,48.301,51.593,48.384,51.638,48.303L51.638,48.303z"/>
	<path fill="#221F1F" d="M44.655,50.709c0.208,0.57,0.255,1.127,0.234,1.731c-0.018,0.517,0.08,1.025-0.118,1.521
		c-0.17,0.427-0.428,0.752-0.558,1.203c-0.159,0.553-0.355,1.051-0.637,1.554c-0.247,0.443-0.522,0.867-0.758,1.315
		c-0.213,0.403-0.327,0.853-0.56,1.246c-0.211,0.356-0.407,0.646-0.554,1.042c-0.174,0.468-0.295,0.903-0.423,1.382
		c-0.023,0.091,0.112,0.141,0.136,0.052c0.126-0.477,0.252-0.92,0.423-1.384c0.173-0.47,0.466-0.837,0.682-1.278
		c0.256-0.521,0.446-1.056,0.743-1.563c0.26-0.443,0.528-0.878,0.75-1.344c0.219-0.458,0.302-0.961,0.481-1.432
		c0.161-0.426,0.453-0.717,0.529-1.18c0.084-0.517,0.021-1.099,0.015-1.622c-0.006-0.451-0.101-0.883-0.254-1.305
		C44.754,50.559,44.623,50.621,44.655,50.709L44.655,50.709z"/>
	<path fill="#221F1F" d="M38.878,65.627c0.339-0.849,0.86-1.505,1.485-2.162c0.204-0.217,0.495-0.437,0.609-0.721
		c0.142-0.35,0.313-0.7,0.472-1.043c0.04-0.086-0.096-0.135-0.136-0.052c-0.142,0.308-0.299,0.612-0.423,0.926
		c-0.177,0.442-0.631,0.788-0.949,1.135c-0.514,0.563-0.911,1.161-1.194,1.866C38.707,65.663,38.843,65.713,38.878,65.627
		L38.878,65.627z"/>
	<path fill="#221F1F" d="M47.533,57.49c-0.193,0.298-0.298,0.599-0.578,0.839c-0.223,0.19-0.401,0.362-0.578,0.599
		c-0.446,0.592-0.945,1.035-1.487,1.532c-0.911,0.835-1.004,2.274-2.158,2.887c-0.082,0.044-0.021,0.175,0.063,0.131
		c1.131-0.599,1.267-1.937,2.089-2.809c0.46-0.488,1.009-0.841,1.416-1.388c0.265-0.355,0.531-0.654,0.868-0.942
		c0.24-0.207,0.318-0.509,0.484-0.766C47.703,57.496,47.584,57.413,47.533,57.49L47.533,57.49z"/>
	<path fill="#221F1F" d="M41.396,65.644c0.267-0.322,0.53-0.64,0.75-0.998c0.246-0.397,0.266-0.978,0.736-1.19
		c0.085-0.037,0.023-0.168-0.063-0.129c-0.33,0.147-0.456,0.425-0.577,0.75c-0.213,0.573-0.582,1.019-0.966,1.483
		C41.218,65.632,41.337,65.715,41.396,65.644L41.396,65.644z"/>
	<path fill="#221F1F" d="M44.499,65.608c0.13-0.884,0.227-1.843,0.132-2.733c-0.049-0.454-0.223-0.895-0.333-1.336
		c-0.137-0.551-0.22-1.116-0.229-1.686c-0.001-0.092-0.144-0.107-0.144-0.015c0,0.027,0,0.054,0,0.081
		c0.048,0.004,0.096,0.01,0.144,0.014c-0.024-0.76-0.027-1.52-0.027-2.279c0-0.092-0.145-0.106-0.145-0.013c0,0.017,0,0.035,0,0.054
		c0.048-0.002,0.096-0.004,0.144-0.006c-0.036-0.591-0.035-1.276,0.117-1.853c0.023-0.091-0.112-0.141-0.136-0.052
		c-0.16,0.607-0.162,1.306-0.124,1.929c0.005,0.081,0.144,0.076,0.144-0.006c0-0.019,0-0.035,0-0.054
		c-0.048-0.003-0.096-0.009-0.145-0.013c0,0.76,0.003,1.52,0.027,2.278c0.003,0.091,0.144,0.107,0.144,0.014c0-0.026,0-0.054,0-0.08
		c-0.048-0.005-0.096-0.009-0.144-0.015c0.016,0.942,0.269,1.811,0.501,2.715c0.24,0.933,0.066,2.097-0.071,3.039
		C44.341,65.688,44.486,65.7,44.499,65.608L44.499,65.608z"/>
	<path fill="#221F1F" d="M46.472,65.606c0.029-0.32,0.037-0.646,0.094-0.961c0.061-0.34,0.184-0.662,0.224-1.007
		c0.01-0.093-0.135-0.105-0.145-0.014c-0.034,0.302-0.129,0.584-0.195,0.878c-0.08,0.358-0.089,0.725-0.122,1.09
		C46.319,65.686,46.464,65.7,46.472,65.606L46.472,65.606z"/>
	<path fill="#221F1F" d="M47.559,65.588c-0.352-1.325,0.076-2.726,0.047-4.071c-0.013-0.639,0.004-1.274,0.04-1.914
		c0.015-0.271,0.16-0.575,0.116-0.845c-0.048-0.299-0.171-0.576-0.218-0.876c-0.015-0.092-0.158-0.068-0.143,0.026
		c0.039,0.243,0.119,0.467,0.191,0.702c0.104,0.344-0.081,0.811-0.1,1.164c-0.039,0.702-0.036,1.396-0.021,2.099
		c0.027,1.253-0.384,2.495-0.054,3.74C47.44,65.704,47.583,65.679,47.559,65.588L47.559,65.588z"/>
	<path fill="#221F1F" d="M46.755,63.869c0.114-0.437,0.131-0.883,0.2-1.327c0.081-0.512,0.265-1.011,0.366-1.521
		c0.11-0.555,0.125-1.125,0.134-1.687c0.007-0.451-0.142-0.919,0.024-1.354c0.033-0.087-0.103-0.139-0.136-0.051
		c-0.113,0.296-0.087,0.608-0.063,0.919c0.042,0.538,0.023,1.069-0.026,1.609c-0.054,0.588-0.215,1.153-0.363,1.723
		c-0.14,0.539-0.13,1.099-0.272,1.639C46.595,63.908,46.731,63.96,46.755,63.869L46.755,63.869z"/>
	<path fill="#221F1F" d="M50.934,55.643c0.005,0.089,0.016,0.151,0.046,0.238c0.085,0.249,0.052,0.482,0.07,0.739
		c0.034,0.501,0.054,0.981-0.023,1.477c-0.146,0.946-0.388,1.881-0.588,2.815c-0.183,0.851-0.264,1.721-0.464,2.569
		c-0.085,0.362-0.215,0.713-0.306,1.075c-0.087,0.342-0.097,0.689-0.142,1.038c-0.011,0.093,0.133,0.105,0.145,0.014
		c0.049-0.389,0.072-0.762,0.169-1.145c0.095-0.377,0.234-0.74,0.314-1.119c0.18-0.865,0.282-1.741,0.468-2.605
		c0.2-0.938,0.431-1.87,0.576-2.816c0.059-0.377,0.03-0.762,0.006-1.141c-0.016-0.242-0.007-0.48-0.021-0.721
		c-0.009-0.153-0.098-0.29-0.107-0.445C51.071,55.524,50.928,55.55,50.934,55.643L50.934,55.643z"/>
	<path fill="#221F1F" d="M47.383,44.023c0,0.284,0.002,0.568,0.027,0.851c0.013,0.136,0.312,0.294,0.422,0.323
		c0.09,0.024,0.141-0.111,0.05-0.136c-0.182-0.049-0.327-0.174-0.341-0.361c-0.016-0.22-0.014-0.442-0.014-0.663
		C47.527,43.943,47.383,43.93,47.383,44.023L47.383,44.023z"/>
	<path fill="#221F1F" d="M46.663,43.854c-0.198,0.411-0.663,0.613-0.832,1.045c-0.034,0.087,0.103,0.137,0.137,0.05
		c0.165-0.425,0.633-0.635,0.831-1.045C46.84,43.82,46.704,43.771,46.663,43.854L46.663,43.854z"/>
	<path fill="#221F1F" d="M45.649,44.29c-0.072-0.487-0.561-0.734-0.706-1.19c-0.076-0.242-0.279-0.833-0.16-1.036
		c0.134-0.227,0.121-0.434,0.13-0.692c0.007-0.206,0.169-0.786,0.363-0.9c0.198-0.117,0.369-0.243,0.532-0.407
		c0.253-0.254,0.444-0.532,0.751-0.731c0.257-0.166,0.583-0.255,0.875-0.329c0.289-0.073,0.586-0.096,0.883-0.074
		c0.326,0.025,0.575,0.225,0.854,0.374c0.253,0.135,0.502,0.26,0.732,0.434c0.348,0.264,0.564,0.703,0.764,1.079
		c0.155,0.294,0.359,0.521,0.423,0.86c0.062,0.326-0.101,0.707-0.126,1.034c-0.038,0.487-0.431,1.338-0.975,1.436
		c-0.092,0.016-0.067,0.159,0.025,0.143c0.502-0.089,0.749-0.6,0.994-1.006c0.119-0.198,0.094-0.475,0.11-0.694
		c0.028-0.366,0.209-0.736,0.08-1.105c-0.125-0.357-0.366-0.671-0.548-1.002c-0.177-0.322-0.39-0.617-0.663-0.863
		c-0.275-0.247-0.66-0.387-0.976-0.569c-0.27-0.154-0.488-0.249-0.804-0.273c-0.619-0.047-1.325,0.177-1.841,0.51
		c-0.297,0.192-0.501,0.515-0.747,0.763c-0.211,0.213-0.507,0.266-0.627,0.553c-0.115,0.278-0.217,0.583-0.228,0.884
		c-0.013,0.36-0.268,0.638-0.179,0.997c0.067,0.272,0.181,0.607,0.302,0.868c0.165,0.358,0.558,0.546,0.619,0.963
		C45.52,44.407,45.663,44.382,45.649,44.29L45.649,44.29z"/>
	<path fill="#221F1F" d="M49.159,40.147c0.457,0.83,0.671,2.107,0.053,2.893c-0.396,0.503-0.786,0.752-1.444,0.705
		c-0.777-0.056-0.409-0.828-0.687-1.24c-0.084-0.125-0.19-0.237-0.289-0.353c-0.186-0.22-0.277-0.834,0.158-0.812
		c0.091,0.005,0.181,0.017,0.271,0.024c0.13,0.012,0.4,0.027,0.418-0.163c0.018-0.192-0.161-0.281-0.312-0.337
		c-0.101-0.037-0.19-0.065-0.284-0.12c-0.336-0.196-0.121-0.614,0.157-0.691c0.381-0.105,0.787,0.042,1.16,0.108
		c0.093,0.017,0.105-0.128,0.014-0.145c-0.428-0.075-1.313-0.365-1.61,0.14c-0.209,0.354,0.138,0.71,0.438,0.819
		c0.14,0.051,0.269,0.258,0.035,0.245c-0.119-0.007-0.238-0.023-0.357-0.029c-0.097-0.005-0.25,0-0.313,0.09
		c-0.432,0.623,0.278,0.875,0.436,1.407c0.091,0.309-0.01,0.625,0.148,0.918c0.085,0.159,0.317,0.225,0.474,0.262
		c0.51,0.124,1.057-0.036,1.412-0.409c0.458-0.481,0.69-0.886,0.693-1.556c0.002-0.61-0.141-1.281-0.437-1.817
		C49.245,40.003,49.114,40.065,49.159,40.147L49.159,40.147z"/>
	<path fill="#221F1F" d="M47.848,53.776c-0.022-0.08-0.001-0.172,0.042-0.242c0.05-0.08-0.069-0.163-0.119-0.083
		c-0.062,0.1-0.098,0.234-0.065,0.349C47.73,53.889,47.874,53.865,47.848,53.776L47.848,53.776z"/>
	<path fill="none" stroke="#221F1F" d="M63.537,39.836c0.087-0.014,0.187-0.001,0.246,0.03c-0.047,0.028-0.121,0.05-0.186,0.061"/>
	<path fill="#221F1F" d="M45.793,44.316c-0.505,0.681-1.665,0.881-2.424,1.031c-1.031,0.204-2.085,0.333-3.137,0.293
		c-0.355-0.013-0.708-0.036-1.062-0.015c-0.551,0.033-1.042-0.032-1.584-0.131c-1.056-0.191-2.164-0.113-3.233-0.09
		c-0.092,0.001-0.106,0.146-0.013,0.144c1.137-0.024,2.285-0.081,3.408,0.123c0.917,0.167,1.861,0.123,2.792,0.121
		c1.142-0.003,2.265-0.174,3.379-0.409c0.653-0.138,1.574-0.418,1.994-0.984C45.969,44.324,45.849,44.241,45.793,44.316
		L45.793,44.316z"/>
	<path fill="#221F1F" d="M33.528,46.562c-0.174-0.112-0.301-0.079-0.487,0.003c-0.493,0.218-1.011,0.396-1.532,0.104
		c-0.309-0.173-0.614-0.359-0.923-0.534c-0.209-0.119-0.055-0.487-0.25-0.635c-0.074-0.056-0.124-0.09-0.22-0.111
		c-0.071-0.017-0.143-0.031-0.215-0.043c-0.12-0.237-0.08-0.322,0.122-0.254c0.513,0.041,1.028,0.048,1.54,0.097
		c1.019,0.096,2.01,0.353,3.038,0.368c0.093,0.001,0.107-0.143,0.014-0.145c-0.904-0.013-1.787-0.199-2.679-0.325
		c-0.42-0.059-0.84-0.088-1.264-0.085c-0.376,0.002-0.739-0.09-1.116-0.053c-0.03,0.003-0.058,0.035-0.06,0.065
		c-0.007,0.229,0.043,0.403,0.293,0.456c0.396,0.083,0.499,0.316,0.59,0.661c0.024,0.094,0.174,0.157,0.249,0.192
		c0.457,0.21,0.831,0.585,1.344,0.634c0.23,0.022,0.468-0.009,0.692-0.057c0.225-0.049,0.548-0.368,0.78-0.218
		C33.523,46.73,33.607,46.612,33.528,46.562L33.528,46.562z"/>
	<path fill="#221F1F" d="M33.39,46.628c0.118,0.064,0.221,0.089,0.354,0.108c0.345,0.048,0.672,0.093,1.009,0.2
		c0.619,0.197,1.192,0.463,1.843,0.542c0.561,0.069,1.141,0.013,1.702-0.033c0.766-0.065,1.391,0.035,2.122,0.275
		c0.997,0.327,2.026-0.169,3.032-0.007c0.365,0.058,0.638,0.29,0.821,0.601c0.165,0.279,0.063,0.696,0.105,1.012
		c0.081,0.59,0.178,1.149,0.372,1.713c0.03,0.089,0.161,0.026,0.131-0.061c-0.225-0.654-0.426-1.425-0.378-2.121
		c0.026-0.39-0.097-0.763-0.421-1.011c-0.71-0.542-1.663-0.236-2.471-0.175c-0.759,0.057-1.371-0.215-2.097-0.355
		c-0.592-0.113-1.143-0.018-1.736,0.024c-0.81,0.057-1.539-0.02-2.304-0.297c-0.335-0.12-0.667-0.248-1.01-0.345
		c-0.309-0.088-0.709-0.039-0.99-0.189C33.392,46.465,33.307,46.584,33.39,46.628L33.39,46.628z"/>
	<path fill="#221F1F" d="M29.347,65.661c0.034-0.021,0.043-0.068,0.022-0.102c-2.255-3.509-3.447-7.578-3.447-11.769
		c0-12.021,9.779-21.8,21.799-21.8s21.8,9.779,21.8,21.8c0,4.19-1.192,8.26-3.448,11.771c-0.021,0.033-0.012,0.08,0.022,0.1
		c0.012,0.01,0.026,0.014,0.039,0.014c0.024,0,0.048-0.014,0.062-0.035c2.271-3.533,3.471-7.63,3.471-11.849
		c0-5.862-2.283-11.373-6.428-15.518c-4.146-4.146-9.656-6.428-15.518-6.428c-5.861,0-11.373,2.282-15.518,6.428
		c-4.145,4.145-6.428,9.656-6.428,15.518c0,4.219,1.2,8.315,3.47,11.849C29.269,65.673,29.313,65.684,29.347,65.661z"/>
	<path fill="none" stroke="#221F1F" stroke-width="0.1" stroke-linecap="round" stroke-miterlimit="10" d="M60.633,65.601
		c2.849-3.111,4.587-7.259,4.587-11.81c0-9.664-7.834-17.499-17.499-17.499s-17.498,7.834-17.498,17.499
		c0,4.544,1.746,8.699,4.585,11.81 M53.447,65.603c4.379-2.127,7.398-6.617,7.398-11.812c0-7.249-5.875-13.124-13.124-13.124
		c-7.248,0-13.124,5.875-13.124,13.124c0,4.292,2.062,8.104,5.25,10.499 M39.848,64.29c0.669,0.503,1.388,0.942,2.147,1.313"/>
	<g>
		<path fill="none" d="M52.072,53.791c0-2.398-1.952-4.35-4.351-4.35c-1.158,0-2.248,0.449-3.068,1.266
			c-0.028,0.027-0.056,0.056-0.083,0.085c-0.773,0.811-1.199,1.877-1.199,2.999c0,2.398,1.952,4.35,4.35,4.35
			C50.121,58.141,52.072,56.189,52.072,53.791z"/>
		<path fill="none" d="M56.446,53.791c0-4.812-3.914-8.725-8.725-8.725c-4.811,0-8.725,3.914-8.725,8.725
			c0,4.81,3.914,8.724,8.725,8.724C52.533,62.515,56.446,58.601,56.446,53.791z M43.323,53.791c0-1.135,0.431-2.212,1.212-3.032
			c0.028-0.03,0.056-0.058,0.084-0.085c0.83-0.828,1.932-1.282,3.103-1.282c2.426,0,4.399,1.973,4.399,4.399
			c0,2.424-1.973,4.397-4.399,4.397C45.296,58.188,43.323,56.215,43.323,53.791z"/>
		<path fill="#221F1F" d="M56.496,53.791c0-4.838-3.936-8.774-8.774-8.774c-4.837,0-8.773,3.936-8.773,8.774
			c0,4.838,3.936,8.773,8.773,8.773C52.56,62.564,56.496,58.629,56.496,53.791z M38.997,53.791c0-4.812,3.914-8.725,8.725-8.725
			c4.811,0,8.725,3.914,8.725,8.725c0,4.81-3.914,8.724-8.725,8.724C42.911,62.515,38.997,58.601,38.997,53.791z"/>
		<path fill="#221F1F" d="M52.121,53.791c0-2.427-1.973-4.399-4.399-4.399c-1.171,0-2.273,0.454-3.103,1.282
			c-0.028,0.027-0.056,0.055-0.084,0.085c-0.782,0.82-1.212,1.897-1.212,3.032c0,2.424,1.974,4.397,4.399,4.397
			C50.147,58.188,52.121,56.215,52.121,53.791z M43.372,53.791c0-1.122,0.426-2.188,1.199-2.999
			c0.027-0.029,0.055-0.058,0.083-0.085c0.82-0.817,1.91-1.266,3.068-1.266c2.399,0,4.351,1.952,4.351,4.35s-1.952,4.35-4.351,4.35
			C45.323,58.141,43.372,56.189,43.372,53.791z"/>
		<path fill="#221F1F" d="M66.022,65.601c0,0.041,0.032,0.074,0.073,0.074c0.04,0,0.072-0.033,0.072-0.074V38.99h-0.146V65.601z"/>
		<path fill="#221F1F" d="M29.349,38.844c0.041,0,0.073,0.032,0.073,0.073v0.072h36.6h0.146v-0.072v-0.073H29.349z"/>
		<path fill="#221F1F" d="M29.349,38.844h-0.073v0.073C29.276,38.876,29.309,38.844,29.349,38.844z"/>
		<path fill="#221F1F" d="M29.349,38.844c-0.04,0-0.073,0.032-0.073,0.073v0.072v26.611c0,0.041,0.033,0.074,0.073,0.074
			c0.041,0,0.073-0.033,0.073-0.074V38.99v-0.072C29.422,38.876,29.389,38.844,29.349,38.844z"/>
	</g>
	<path fill="#221F1F" d="M30.275,59.475v5.228c0.22,0.032,0.491,0.049,0.815,0.049c0.688,0,1.228-0.252,1.621-0.753
		c0.393-0.5,0.589-1.197,0.589-2.088c0-1.655-0.765-2.483-2.293-2.483C30.916,59.427,30.671,59.443,30.275,59.475L30.275,59.475z
		 M30.742,65.601h-1.451v-6.976c0.924-0.031,1.516-0.048,1.774-0.048c1.006,0,1.802,0.295,2.389,0.889
		c0.587,0.591,0.88,1.38,0.88,2.363C34.334,64.344,33.136,65.601,30.742,65.601L30.742,65.601z"/>
	<g>
		<path fill="none" d="M31.008,59.671c-0.049,0-0.174,0.006-0.489,0.029v4.786c0.166,0.013,0.357,0.021,0.572,0.021
			c0.615,0,1.083-0.215,1.43-0.658c0.357-0.454,0.538-1.106,0.538-1.938C33.058,60.382,32.407,59.671,31.008,59.671z"/>
		<path fill="none" d="M31.065,58.82c-0.233,0-0.735,0.014-1.531,0.039v6.497h1.208c2.254,0,3.349-1.152,3.349-3.527
			c0-0.926-0.265-1.643-0.809-2.193C32.737,59.087,32.013,58.82,31.065,58.82z M32.903,64.148c-0.44,0.56-1.049,0.844-1.813,0.844
			c-0.341,0-0.619-0.017-0.851-0.05l-0.208-0.029v-5.662l0.223-0.019c0.407-0.033,0.652-0.048,0.752-0.048
			c1.66,0,2.537,0.942,2.537,2.726C33.544,62.853,33.329,63.604,32.903,64.148z"/>
		<path fill="#FFFFFF" d="M31.008,59.185c-0.1,0-0.346,0.015-0.752,0.048l-0.223,0.019v5.662l0.208,0.029
			c0.231,0.033,0.51,0.05,0.851,0.05c0.763,0,1.373-0.284,1.813-0.844c0.425-0.544,0.641-1.296,0.641-2.238
			C33.544,60.127,32.667,59.185,31.008,59.185z M32.521,63.849c-0.347,0.443-0.815,0.658-1.43,0.658
			c-0.215,0-0.407-0.008-0.572-0.021V59.7c0.315-0.023,0.44-0.029,0.489-0.029c1.399,0,2.05,0.711,2.05,2.239
			C33.058,62.742,32.877,63.395,32.521,63.849z"/>
		<path fill="#FFFFFF" d="M31.065,58.335c-0.26,0-0.844,0.015-1.783,0.046l-0.235,0.01v7.452h1.693c2.545,0,3.835-1.349,3.835-4.014
			c0-1.046-0.319-1.899-0.95-2.535C32.996,58.656,32.133,58.335,31.065,58.335z M30.742,65.356h-1.208v-6.497
			c0.797-0.025,1.299-0.039,1.531-0.039c0.947,0,1.672,0.267,2.216,0.815c0.544,0.551,0.809,1.268,0.809,2.193
			C34.091,64.204,32.996,65.356,30.742,65.356z"/>
	</g>
	<path fill="#221F1F" d="M37.74,60.351l-1.113,3.075h2.133L37.74,60.351L37.74,60.351z M39.532,65.601L39.04,64.13h-2.672
		l-0.529,1.471h-1.105l2.929-7.071h0.255l2.71,7.071H39.532L39.532,65.601z"/>
	<g>
		<path fill="none" d="M35.097,65.356h0.571l0.529-1.469h3.017l0.494,1.469h0.565l-2.488-6.491L35.097,65.356z M36.281,63.668
			l1.469-4.059l1.347,4.059H36.281z"/>
		<polygon fill="none" points="36.974,63.182 38.424,63.182 37.73,61.092 		"/>
		<path fill="#FFFFFF" d="M37.499,58.285l-3.13,7.558h1.64l0.529-1.469h2.326l0.494,1.469h1.622l-2.896-7.558H37.499z
			 M39.708,65.356l-0.494-1.469h-3.017l-0.529,1.469h-0.571l2.688-6.491l2.488,6.491H39.708z"/>
		<path fill="#FFFFFF" d="M36.281,63.668h2.816l-1.347-4.059L36.281,63.668z M36.974,63.182l0.756-2.09l0.693,2.09H36.974z"/>
	</g>
	<path fill="#221F1F" d="M46.375,65.698h-0.498l-2.686-7.073h1.094l1.854,5.141l1.78-5.141h1.058L46.375,65.698L46.375,65.698z"/>
	<g>
		<polygon fill="none" points="44.115,58.869 43.544,58.869 46.045,65.455 46.206,65.455 48.627,58.869 48.092,58.869 
			46.143,64.495 		"/>
		<path fill="#FFFFFF" d="M46.134,63.036l-1.677-4.653H42.84l2.87,7.558h0.835l2.779-7.558h-1.579L46.134,63.036z M48.627,58.869
			l-2.421,6.586h-0.161l-2.501-6.586h0.571l2.028,5.626l1.949-5.626H48.627L48.627,58.869z"/>
	</g>
	<path fill="#221F1F" d="M49.953,65.601v-6.976h0.984v6.976H49.953L49.953,65.601z"/>
	<g>
		<rect x="50.196" y="58.869" fill="none" width="0.499" height="6.487"/>
		<path fill="#FFFFFF" d="M49.71,65.843h1.471v-7.46H49.71V65.843z M50.196,58.869h0.499v6.487h-0.499V58.869z"/>
	</g>
	<path fill="#221F1F" d="M57.225,65.698l-3.706-5.104v5.006h-0.936v-6.976h0.389l3.609,4.824v-4.824h0.936v7.073H57.225
		L57.225,65.698z"/>
	<g>
		<polygon fill="none" points="52.827,58.869 52.827,65.356 53.276,65.356 53.276,59.847 57.274,65.352 57.274,58.869 
			56.824,58.869 56.824,64.18 52.851,58.869 		"/>
		<path fill="#FFFFFF" d="M56.338,62.72l-3.244-4.337H52.34v7.46h1.422v-4.5l3.34,4.598h0.658v-7.558h-1.422V62.72L56.338,62.72z
			 M56.824,58.869h0.45v6.482l-3.998-5.505v5.51h-0.449v-6.487h0.024l3.973,5.311V58.869L56.824,58.869z"/>
	</g>
	<path fill="#221F1F" d="M63.598,58.893l-0.33,0.813c-0.315-0.226-0.811-0.34-1.487-0.34c-0.633,0-1.141,0.264-1.523,0.791
		c-0.382,0.526-0.573,1.204-0.573,2.034c0,0.793,0.196,1.436,0.587,1.929c0.392,0.492,0.897,0.739,1.517,0.739
		c0.675,0,1.195-0.23,1.559-0.69l0.541,0.728c-0.57,0.551-1.305,0.826-2.203,0.826c-0.941,0-1.682-0.329-2.223-0.985
		c-0.541-0.655-0.811-1.522-0.811-2.596c0-1.041,0.289-1.905,0.866-2.593c0.578-0.689,1.324-1.033,2.24-1.033
		C62.541,58.516,63.155,58.642,63.598,58.893L63.598,58.893z"/>
	<g>
		<path fill="none" d="M61.79,65.102c-0.694,0-1.269-0.279-1.708-0.829c-0.424-0.536-0.64-1.234-0.64-2.081
			c0-0.88,0.208-1.611,0.62-2.179c0.428-0.59,1.007-0.889,1.719-0.889c0.574,0,1.024,0.077,1.366,0.234l0.141-0.348
			c-0.388-0.168-0.902-0.251-1.53-0.251c-0.848,0-1.52,0.309-2.054,0.944c-0.536,0.642-0.808,1.46-0.808,2.438
			c0,1.011,0.254,1.833,0.755,2.44c0.498,0.604,1.163,0.896,2.036,0.896c0.759,0,1.375-0.201,1.876-0.615l-0.234-0.314
			C62.936,64.917,62.419,65.102,61.79,65.102z"/>
		<path fill="#FFFFFF" d="M63.157,64.017c-0.318,0.403-0.765,0.599-1.368,0.599c-0.546,0-0.98-0.21-1.327-0.646
			c-0.355-0.447-0.535-1.044-0.535-1.777c0-0.774,0.177-1.412,0.527-1.893c0.336-0.464,0.77-0.689,1.326-0.689
			c0.621,0,1.073,0.101,1.344,0.294l0.251,0.182l0.526-1.299l-0.185-0.104c-0.479-0.272-1.138-0.409-1.96-0.409
			c-0.986,0-1.802,0.375-2.425,1.118c-0.612,0.73-0.923,1.656-0.923,2.75c0,1.127,0.292,2.053,0.867,2.751
			c0.587,0.712,1.398,1.072,2.411,1.072c0.959,0,1.757-0.302,2.372-0.895l0.154-0.147l-0.858-1.155L63.157,64.017z M61.686,65.479
			c-0.873,0-1.538-0.292-2.036-0.896c-0.501-0.607-0.755-1.43-0.755-2.44c0-0.978,0.272-1.798,0.808-2.438
			c0.534-0.636,1.206-0.944,2.054-0.944c0.628,0,1.142,0.083,1.53,0.251l-0.141,0.348c-0.342-0.157-0.792-0.234-1.366-0.234
			c-0.712,0-1.291,0.299-1.719,0.889c-0.412,0.567-0.62,1.299-0.62,2.179c0,0.847,0.216,1.545,0.64,2.079
			c0.438,0.552,1.013,0.831,1.708,0.831c0.63,0,1.146-0.185,1.539-0.555l0.234,0.316C63.061,65.277,62.445,65.479,61.686,65.479z"/>
	</g>
	<path fill="#221F1F" d="M65.192,65.601v-6.976h0.984v6.976H65.192L65.192,65.601z"/>
	<g>
		<rect x="65.436" y="58.869" fill="none" width="0.498" height="6.487"/>
		<path fill="#FFFFFF" d="M64.949,65.843h1.471v-7.46h-1.471V65.843z M65.436,58.869h0.498v6.487h-0.498V58.869z"/>
	</g>
	<path fill="#221F1F" d="M30.275,59.473v5.227c0.219,0.033,0.491,0.048,0.815,0.048c0.688,0,1.228-0.25,1.621-0.752
		c0.393-0.501,0.59-1.197,0.59-2.089c0-1.653-0.765-2.481-2.294-2.481C30.916,59.425,30.671,59.439,30.275,59.473L30.275,59.473z
		 M30.741,65.597h-1.45v-6.976c0.924-0.031,1.515-0.048,1.774-0.048c1.006,0,1.802,0.298,2.389,0.889
		c0.586,0.592,0.88,1.381,0.88,2.363C34.334,64.341,33.136,65.597,30.741,65.597L30.741,65.597z"/>
	<path fill="#221F1F" d="M37.74,60.347l-1.113,3.075h2.133L37.74,60.347L37.74,60.347z M39.532,65.597l-0.493-1.469h-2.671
		l-0.529,1.469h-1.105l2.929-7.071h0.255l2.71,7.071H39.532L39.532,65.597z"/>
	<path fill="#221F1F" d="M46.375,65.695h-0.498l-2.686-7.072h1.094l1.854,5.139l1.78-5.139h1.058L46.375,65.695L46.375,65.695z"/>
	<path fill="#221F1F" d="M49.953,65.597v-6.974h0.984v6.974H49.953L49.953,65.597z"/>
	<path fill="#221F1F" d="M57.225,65.695l-3.706-5.104v5.006h-0.936v-6.974h0.389l3.609,4.823v-4.823h0.935v7.072H57.225
		L57.225,65.695z"/>
	<path fill="#221F1F" d="M63.597,58.889l-0.329,0.815c-0.316-0.228-0.811-0.34-1.487-0.34c-0.633,0-1.141,0.262-1.523,0.789
		c-0.382,0.526-0.573,1.204-0.573,2.036c0,0.791,0.196,1.434,0.587,1.928c0.391,0.493,0.897,0.738,1.517,0.738
		c0.675,0,1.195-0.23,1.559-0.69l0.541,0.728c-0.57,0.551-1.305,0.826-2.203,0.826c-0.941,0-1.682-0.329-2.223-0.984
		c-0.541-0.656-0.811-1.521-0.811-2.597c0-1.04,0.288-1.905,0.866-2.593s1.324-1.031,2.24-1.031
		C62.541,58.514,63.155,58.64,63.597,58.889L63.597,58.889z"/>
	<path fill="#221F1F" d="M65.192,65.597v-6.974h0.984v6.974H65.192L65.192,65.597z"/>
</g>
<g>
</g>
<g>
</g>
<g>
</g>
<g>
</g>
<g>
</g>
<g>
</g>
</svg>
